#!OML:ASF E:\inclinewalkrobotboard\Project 1\Capture day 1\Session 1\subject1.ASF
:FULLY-SPECIFIED
:DEGREES
237
root 8.66742 20.3043 14.1358 -172.819 9.13398 179.782
lowerback 6.89935 4.61278 -5.08304
upperback 5.23681 6.31629 0.0807576
thorax 1.04258 3.21498 2.5195
lowerneck -6.66321 0.0473236 -3.17791
upperneck 20.7239 -1.19781 2.94409
head 7.47695 -0.969142 1.34357
rclavicle 1.00883e-014 2.28602e-015
rhumerus -7.0084 4.9385 -91.014
rradius 45.1744
rwrist -1.07976
rhand -14.1101 -33.27
rfingers 7.12502
rthumb 12.023 -62.9046
lclavicle 1.00883e-014 2.28602e-015
lhumerus -43.0664 26.8486 62.7651
lradius 12.3794
lwrist -42.7216
lhand -22.2165 -18.6512
lfingers 7.12502
lthumb 4.19974 11.2872
rfemur 3.94216 7.6289 24.1996
rtibia 19.3822
rfoot -32.2908 1.85182
rtoes -26.0349
lfemur -67.3736 2.57997 -16.3952
ltibia 54.78
lfoot -10.9378 6.18443
ltoes -59.5376
238
root 8.63781 20.3477 13.8501 -172.261 9.73935 179.527
lowerback 6.60741 4.65968 -5.49844
upperback 5.13541 6.36174 -0.228033
thorax 1.08865 3.22645 2.44782
lowerneck -6.19188 0.0462946 -3.57599
upperneck 20.1993 -1.19905 3.34069
head 7.22372 -0.959417 1.54023
rclavicle 1.08835e-014 -2.88238e-015
rhumerus -7.28626 4.63666 -91.3911
rradius 44.4425
rwrist -0.0695212
rhand -13.4928 -33.2826
rfingers 7.12502
rthumb 12.6182 -62.8815
lclavicle 1.08835e-014 -2.88238e-015
lhumerus -42.8107 26.9497 62.7065
lradius 12.4004
lwrist -42.161
lhand -22.2295 -18.8032
lfingers 7.12502
lthumb 4.18714 11.1354
rfemur 4.64766 7.69033 23.3574
rtibia 18.6505
rfoot -30.5346 2.65856
rtoes -27.4096
lfemur -66.9652 2.60683 -16.9807
ltibia 55.7252
lfoot -13.7663 8.05196
ltoes -63.1052
239
root 8.60646 20.4058 13.5673 -171.46 10.1673 179.154
lowerback 6.23909 4.62915 -6.11956
upperback 4.94184 6.29001 -0.525478
thorax 1.06963 3.17398 2.50998
lowerneck -5.9392 0.0600933 -3.79002
upperneck 19.8156 -1.13684 3.41058
head 7.05278 -0.931351 1.60369
rclavicle 1.37658e-014 -2.72335e-014
rhumerus -7.96051 4.46269 -91.5715
rradius 43.9457
rwrist 0.435424
rhand -13.3334 -33.1831
rfingers 7.12502
rthumb 12.7718 -62.7724
lclavicle 1.37658e-014 -2.72335e-014
lhumerus -42.5205 27.1766 62.684
lradius 12.4537
lwrist -41.793
lhand -22.1847 -18.6193
lfingers 7.12502
lthumb 4.23041 11.3185
rfemur 5.01231 7.69394 22.3434
rtibia 17.9346
rfoot -28.3506 3.61433
rtoes -27.071
lfemur -66.733 2.36153 -17.7137
ltibia 56.3917
lfoot -16.3342 7.97444
ltoes -62.9669
240
root 8.58107 20.487 13.297 -170.419 10.3941 179.048
lowerback 5.94218 4.82021 -6.42678
upperback 4.53696 6.50116 -0.922696
thorax 0.80734 3.27722 2.25881
lowerneck -5.39709 -0.114728 -3.50776
upperneck 19.5377 -1.48099 3.63665
head 6.87941 -1.06562 1.60278
rclavicle -2.6339e-014 1.36664e-014
rhumerus -9.26433 3.11762 -91.6712
rradius 43.6716
rwrist 0.9801
rhand -13.3176 -33.7016
rfingers 7.12502
rthumb 12.787 -63.29
lclavicle -2.6339e-014 1.36664e-014
lhumerus -41.7652 26.7273 62.7114
lradius 12.3151
lwrist -42.0849
lhand -22.2932 -18.188
lfingers 7.12502
lthumb 4.12567 11.7518
rfemur 4.92676 7.83027 21.7496
rtibia 17.4965
rfoot -25.8756 4.18868
rtoes -26.6555
lfemur -66.8809 2.13327 -18.178
ltibia 56.9758
lfoot -17.972 8.31222
ltoes -63.2751
241
root 8.56769 20.598 13.0344 -169.454 10.4843 179.001
lowerback 5.85538 4.79365 -7.02111
upperback 4.37712 6.43398 -1.14922
thorax 0.662739 3.23884 2.35356
lowerneck -5.45956 -0.214356 -3.94081
upperneck 19.2897 -1.64966 4.29034
head 6.82312 -1.11285 1.87434
rclavicle -3.19546e-014 3.68746e-014
rhumerus -10.0804 2.34825 -91.6247
rradius 42.9516
rwrist 1.11945
rhand -13.8051 -33.9683
rfingers 7.12502
rthumb 12.317 -63.5855
lclavicle -3.19546e-014 3.68746e-014
lhumerus -40.7893 27.7714 62.453
lradius 12.0727
lwrist -43.3627
lhand -22.4937 -17.4
lfingers 7.12502
lthumb 3.93201 12.5434
rfemur 4.78843 8.05773 21.4105
rtibia 17.1922
rfoot -23.0655 4.10439
rtoes -26.9139
lfemur -66.875 1.9317 -18.4862
ltibia 57.2548
lfoot -19.1713 8.53066
ltoes -63.5778
242
root 8.56463 20.7306 12.7698 -168.593 10.4293 178.893
lowerback 5.86208 4.86947 -7.6799
upperback 4.16976 6.49742 -1.51875
thorax 0.41608 3.2752 2.31468
lowerneck -5.17938 -0.456411 -3.88434
upperneck 18.8507 -2.07728 4.90275
head 6.65581 -1.26166 2.03044
rclavicle -1.31198e-014 -1.15295e-014
rhumerus -11.1786 0.831538 -91.6011
rradius 42.0484
rwrist 0.998598
rhand -14.6397 -33.7459
rfingers 7.12502
rthumb 11.5123 -63.4098
lclavicle -1.31198e-014 -1.15295e-014
lhumerus -39.3064 27.9616 62.5685
lradius 11.8345
lwrist -44.2699
lhand -22.756 -16.8189
lfingers 7.12502
lthumb 3.67869 13.1291
rfemur 4.70792 8.08289 21.1054
rtibia 16.8809
rfoot -19.6792 3.5495
rtoes -27.5426
lfemur -66.4925 1.66475 -18.738
ltibia 57.0711
lfoot -20.4611 8.08645
ltoes -63.2459
